<svg xmlns="http://www.w3.org/2000/svg" width="50" height="71.04" viewBox="0 0 50 71.04"
    xmlns:xsi="http://www.w3.org/2001/XMLSchema-instance"
    xsi:schemaLocation="http://www.w3.org/2000/svg ">
    <g transform="translate(5 -14)">
        <g transform="translate(-72.001 -6.949)">
            <g transform="translate(67.001 20.949)">
                <g transform="translate(0 0)">
                    <g transform="translate(0)">
                        <path d="M55.7,31.992A23.823,23.823,0,0,0,9.775,22.857a24.179,24.179,0,0,0,8.934,29.209L31.846,76.677,44.982,52.066A24.084,24.084,0,0,0,55.7,31.992Zm0,0"
                            transform="translate(-6.845 -6.784)" fill="#fc031c" />
                        <g transform="translate(0)">
                            <path d="M24.993,0a25.017,25.017,0,0,0-23.9,17.814,25.31,25.31,0,0,0,9.891,28.261L23.992,70.436a1.132,1.132,0,0,0,2,0L39,46.074a25.31,25.31,0,0,0,9.892-28.261A25.016,25.016,0,0,0,24.993,0ZM37.509,44.326a1.123,1.123,0,0,0-.374.412L24.993,67.476,12.851,44.738a1.121,1.121,0,0,0-.373-.412,23.013,23.013,0,0,1-9.25-25.716,22.672,22.672,0,0,1,43.532,0,23.013,23.013,0,0,1-9.25,25.716Zm0,0"
                                transform="translate(0.007 0)" fill="#fff" />
                            <path d="M107.275,96.993h-8.46L96.2,88.818a1.123,1.123,0,0,0-2.143,0l-2.621,8.175H82.976a1.13,1.13,0,0,0-1.073.792,1.156,1.156,0,0,0,.41,1.281l6.847,5.054L86.545,112.3a1.156,1.156,0,0,0,.41,1.279,1.114,1.114,0,0,0,1.324,0l6.846-5.053,6.846,5.053a1.113,1.113,0,0,0,1.325,0,1.155,1.155,0,0,0,.41-1.28l-2.614-8.178,6.847-5.054a1.156,1.156,0,0,0,.409-1.281,1.13,1.13,0,0,0-1.073-.791ZM99.1,102.755a1.157,1.157,0,0,0-.409,1.281l1.8,5.614-4.7-3.468a1.113,1.113,0,0,0-1.326,0l-4.7,3.468,1.8-5.614a1.155,1.155,0,0,0-.409-1.281l-4.7-3.47h5.811a1.13,1.13,0,0,0,1.073-.792l1.8-5.613,1.8,5.615a1.13,1.13,0,0,0,1.072.792h5.817Zm0,0"
                                transform="translate(-70.124 -75.422)" fill="none" />
                        </g>
                    </g>
                </g>
                <g transform="translate(11.278 12.519)">
                    <path d="M24.428,55.841h2.236L27,66.126h-2.85Z" transform="translate(-19.676 -47.792)" fill="#fbfefb" />
                    <path d="M2.851,114.4h21.8v1.174h1.677v1.677H27.5v1.174H0v-1.174H1.174v-1.677H2.851Z"
                        transform="translate(0 -95.507)" fill="#fbfefb" />
                    <path d="M33.392,17.406,21.375,12.375,9.357,17.406v.727H33.392Z" transform="translate(-7.624 -12.375)" fill="#fbfefb" />
                    <rect width="19.452" height="1.118" transform="translate(4.024 6.316)"
                        fill="#fbfefb" />
                    <path d="M109.245,55.841h2.236l.335,10.285h-2.85Z" transform="translate(-88.787 -47.792)" fill="#fbfefb" />
                    <path d="M80.872,55.841h2.291L83.5,66.126H80.592Z" transform="translate(-65.668 -47.792)" fill="#fbfefb" />
                    <path d="M52.553,55.841h2.236l.335,10.285H52.218Z" transform="translate(-42.548 -47.792)" fill="#fbfefb" />
                </g>
            </g>
            <path d="M67.114,48A19.325,19.325,0,1,0,86.228,67.324,19.22,19.22,0,0,0,67.114,48Zm0,36.5A17.177,17.177,0,1,1,84.1,67.324,17.084,17.084,0,0,1,67.114,84.5Zm0,0"
                transform="translate(24.916 -21.268)" fill="#fff" />
        </g>
    </g>
</svg>